:FULLY-SPECIFIED
:FORCE-ALL-JOINTS-BE-3DOF
:DEGREES
577
root 7.09896 16.343 -3.58492 -167.442 75.0587 -174.471
lfemur -17.2937 -2.81504 -19.2227
ltibia 45.4615 -0 0
lfoot -32.6848 9.56239 -0.00312897
ltoes 6.0188 -0 0
rfemur -51.6632 -12.1077 13.6072
rtibia 45.2009 -0 0
rfoot 9.70498 4.72842 0.00169718
rtoes -31.9483 0 0
lowerback 6.96551 -0.715247 -2.09994
upperback 2.46376 -0.915352 3.60781
thorax -1.26373 -0.429315 4.99192
lowerneck -5.27113 -13.5098 -4.0742
upperneck 10.1776 -18.2855 5.14673
head 4.76657 -8.8516 1.05348
lclavicle 7.05305e-15 -9.3824e-15 -1.38277e-31
lhumerus -41.4239 -16.5375 94.221
lradius 55.4139 -0 0
lwrist 22.2229 0 0
lhand -21.2571 -4.38859 0.00206241
lfingers 7.12502 -0 0
lthumb 5.12603 25.5279 0.001723
rclavicle 7.05305e-15 -9.3824e-15 -1.38277e-31
rhumerus 28.4433 15.4018 -73.9175
rradius 133.765 -0 0
rwrist -45.711 0 0
rhand -26.0512 -21.6005 0.000956377
rfingers 7.12502 -0 0
rthumb 0.496245 -51.5793 0.000920255
578
root 7.08706 16.3467 -3.58729 -167.143 75.5682 -174.182
lfemur -17.2792 -2.57358 -19.2632
ltibia 45.3953 -0 0
lfoot -32.7095 9.70978 -0.00686382
ltoes 6.20379 -0 0
rfemur -51.6733 -12.1619 13.7007
rtibia 45.4142 -0 0
rfoot 9.7145 4.93395 0.00372314
rtoes -31.7629 0 0
lowerback 6.93117 -0.740014 -2.11635
upperback 2.43834 -0.949961 3.58761
thorax -1.26733 -0.446684 4.98144
lowerneck -5.30757 -13.4664 -4.03524
upperneck 10.224 -18.2304 5.12285
head 4.78049 -8.82251 1.04277
lclavicle 7.89182e-15 -9.18936e-15 -3.03315e-31
lhumerus -41.2751 -16.7745 94.2741
lradius 55.4506 -0 0
lwrist 22.2067 0 0
lhand -21.1734 -4.35982 0.00452405
lfingers 7.12502 -0 0
lthumb 5.2068 25.5528 0.00377953
rclavicle 7.89182e-15 -9.18936e-15 -3.03315e-31
rhumerus 28.3755 15.2853 -73.9004
rradius 133.576 -0 0
rwrist -45.8206 0 0
rhand -26.0797 -21.6397 0.00209786
rfingers 7.12502 -0 0
rthumb 0.468714 -51.6184 0.00201862
579
root 7.07082 16.3518 -3.59053 -166.701 76.2626 -173.753
lfemur -17.2596 -2.24413 -19.3183
ltibia 45.3051 -0 0
lfoot -32.7432 9.91081 -0.0118555
ltoes 6.4561 -0 0
rfemur -51.6872 -12.2358 13.8283
rtibia 45.7052 -0 0
rfoot 9.72751 5.21426 0.00643113
rtoes -31.5101 0 0
lowerback 6.88435 -0.773814 -2.1387
upperback 2.40367 -0.997178 3.56007
thorax -1.27224 -0.470376 4.96715
lowerneck -5.35721 -13.407 -3.98216
upperneck 10.2872 -18.1551 5.09037
head 4.79946 -8.78282 1.02818
lclavicle 9.03585e-15 -8.92605e-15 -5.23864e-31
lhumerus -41.072 -17.0981 94.3456
lradius 55.5005 -0 0
lwrist 22.1845 0 0
lhand -21.0592 -4.32058 0.00781378
lfingers 7.12502 -0 0
lthumb 5.31697 25.5868 0.00652786
rclavicle 9.03585e-15 -8.92605e-15 -5.23864e-31
rhumerus 28.2829 15.1265 -73.8767
rradius 133.317 -0 0
rwrist -45.9701 0 0
rhand -26.1186 -21.6933 0.00362329
rfingers 7.12502 -0 0
rthumb 0.431163 -51.6717 0.00348644
580
root 7.0505 16.3582 -3.59458 -166.081 77.1304 -173.151
lfemur -17.2355 -1.83183 -19.387
ltibia 45.1921 -0 0
lfoot -32.7853 10.1624 -0.0179363
ltoes 6.77187 -0 0
rfemur -51.7049 -12.3283 13.988
rtibia 46.0695 -0 0
rfoot 9.74381 5.56521 0.00973188
rtoes -31.1936 0 0
lowerback 6.82576 -0.816144 -2.16663
upperback 2.36033 -1.05629 3.52566
thorax -1.27837 -0.50003 4.94927
lowerneck -5.41924 -13.3327 -3.91582
upperneck 10.3663 -18.0609 5.04986
head 4.8232 -8.73314 1.00993
lclavicle 1.04677e-14 -8.59649e-15 -7.92492e-31
lhumerus -40.818 -17.5034 94.4336
lradius 55.5631 -0 0
lwrist 22.1568 0 0
lhand -20.9163 -4.27146 0.0118209
lfingers 7.12502 -0 0
lthumb 5.45486 25.6293 0.00987549
rclavicle 1.04677e-14 -8.59649e-15 -7.92492e-31
rhumerus 28.1671 14.9277 -73.8468
rradius 132.993 -0 0
rwrist -46.1572 0 0
rhand -26.1673 -21.7603 0.00548093
rfingers 7.12502 -0 0
rthumb 0.384172 -51.7385 0.00527392
581
root 7.02635 16.3658 -3.5994 -165.229 78.1599 -172.319
lfemur -17.2075 -1.34165 -19.4685
ltibia 45.0578 -0 0
lfoot -32.8355 10.4615 -0.0249242
ltoes 7.14743 -0 0
rfemur -51.7262 -12.4381 14.178
rtibia 46.5025 -0 0
rfoot 9.76322 5.98235 0.0135251
rtoes -30.8172 0 0
lowerback 6.75614 -0.866505 -2.19978
upperback 2.30884 -1.1266 3.4848
thorax -1.28565 -0.535287 4.92802
lowerneck -5.49285 -13.2442 -3.83709
upperneck 10.4601 -17.9489 5.00191
head 4.85139 -8.67406 0.98827
lclavicle 1.21699e-14 -8.20471e-15 -1.10113e-30
lhumerus -40.5161 -17.9856 94.5359
lradius 55.6374 -0 0
lwrist 22.1239 0 0
lhand -20.7464 -4.21305 0.0164252
lfingers 7.12502 -0 0
lthumb 5.6188 25.6799 0.013722
rclavicle 1.21699e-14 -8.20471e-15 -1.10113e-30
rhumerus 28.0294 14.6915 -73.8107
rradius 132.607 -0 0
rwrist -46.3797 0 0
rhand -26.2251 -21.84 0.00761566
rfingers 7.12502 -0 0
rthumb 0.328295 -51.8179 0.00732802
582
root 6.9986 16.3746 -3.60494 -164.05 79.3386 -171.164
lfemur -17.1762 -0.778592 -19.5618
ltibia 44.9036 -0 0
lfoot -32.8931 10.8051 -0.0326273
ltoes 7.57867 -0 0
rfemur -51.7511 -12.5642 14.3964
rtibia 46.9998 -0 0
rfoot 9.78553 6.46147 0.0177074
rtoes -30.385 0 0
lowerback 6.6762 -0.924398 -2.23779
upperback 2.24975 -1.20741 3.43794
thorax -1.29399 -0.575786 4.90361
lowerneck -5.57721 -13.1425 -3.74684
upperneck 10.5676 -17.8201 4.9471
head 4.88373 -8.6062 0.96343
lclavicle 1.41251e-14 -7.75471e-15 -1.44127e-30
lhumerus -40.1694 -18.5404 94.6506
lradius 55.7228 -0 0
lwrist 22.0861 0 0
lhand -20.5512 -4.14594 0.0214998
lfingers 7.12502 -0 0
lthumb 5.80709 25.738 0.0179614
rclavicle 1.41251e-14 -7.75471e-15 -1.44127e-30
rhumerus 27.8712 14.4204 -73.7686
rradius 132.164 -0 0
rwrist -46.6351 0 0
rhand -26.2916 -21.9315 0.00996834
rfingers 7.12502 -0 0
rthumb 0.264112 -51.909 0.00959184
583
root 6.96751 16.3844 -3.61114 -162.381 80.6526 -169.523
lfemur -17.1423 -0.147484 -19.6659
ltibia 44.7308 -0 0
lfoot -32.9578 11.1902 -0.0408518
ltoes 8.06185 -0 0
rfemur -51.7797 -12.7053 14.6413
rtibia 47.557 -0 0
rfoot 9.81058 6.9983 0.0221716
rtoes -29.9008 0 0
lowerback 6.58668 -0.989329 -2.28028
upperback 2.18363 -1.29802 3.38554
thorax -1.30332 -0.621168 4.87627
lowerneck -5.67149 -13.0283 -3.64595
upperneck 10.6878 -17.6756 4.88605
head 4.91993 -8.53014 0.93565
lclavicle 1.63158e-14 -7.25051e-15 -1.80413e-30
lhumerus -39.781 -19.1626 94.7752
lradius 55.8185 -0 0
lwrist 22.0437 0 0
lhand -20.3325 -4.07073 0.0269141
lfingers 7.12502 -0 0
lthumb 6.01807 25.8032 0.0224845
rclavicle 1.63158e-14 -7.25051e-15 -1.80413e-30
rhumerus 27.6939 14.1165 -73.7205
rradius 131.669 -0 0
rwrist -46.9214 0 0
rhand -26.366 -22.034 0.0124783
rfingers 7.12502 -0 0
rthumb 0.192194 -52.0112 0.012007
584
root 6.93333 16.3951 -3.61796 -159.917 82.0853 -167.087
lfemur -17.1063 0.546379 -19.78
ltibia 44.5407 -0 0
lfoot -33.0289 11.6136 -0.0493896
ltoes 8.59313 -0 0
rfemur -51.8118 -12.8604 14.9109
rtibia 48.1698 -0 0
rfoot 9.83818 7.5887 0.0268102
rtoes -29.3683 0 0
lowerback 6.4883 -1.0608 -2.32688
upperback 2.11102 -1.39771 3.32804
thorax -1.31355 -0.671072 4.84622
lowerneck -5.77487 -12.9027 -3.53529
upperneck 10.8198 -17.5166 4.81934
head 4.95969 -8.44649 0.905167
lclavicle 1.87245e-14 -6.69612e-15 -2.18086e-30
lhumerus -39.3538 -19.8476 94.9077
lradius 55.9237 -0 0
lwrist 21.9971 0 0
lhand -20.092 -3.98801 0.0325358
lfingers 7.12502 -0 0
lthumb 6.25005 25.8748 0.0271808
rclavicle 1.87245e-14 -6.69612e-15 -2.18086e-30
rhumerus 27.4989 13.7827 -73.6666
rradius 131.123 -0 0
rwrist -47.2361 0 0
rhand -26.4479 -22.1468 0.0150843
rfingers 7.12502 -0 0
rthumb 0.113111 -52.1235 0.0145146
585
root 6.8963 16.4068 -3.62534 -156.016 83.6135 -163.218
lfemur -17.0688 1.29811 -19.9032
ltibia 44.3349 -0 0
lfoot -33.106 12.0722 -0.0580452
ltoes 9.16879 -0 0
rfemur -51.8475 -13.0282 15.2031
rtibia 48.8336 -0 0
rfoot 9.86812 8.22816 0.031513
rtoes -28.7914 0 0
lowerback 6.38179 -1.13831 -2.37722
upperback 2.03246 -1.50578 3.26589
thorax -1.3246 -0.725139 4.81367
lowerneck -5.88651 -12.7663 -3.41574
upperneck 10.9623 -17.3443 4.74757
head 5.00269 -8.35585 0.872218
lclavicle 2.13338e-14 -6.09556e-15 -2.56266e-30
lhumerus -38.8909 -20.5907 95.0456
lradius 56.0377 -0 0
lwrist 21.9466 0 0
lhand -19.8315 -3.89838 0.038234
lfingers 7.12502 -0 0
lthumb 6.50136 25.9524 0.031941
rclavicle 2.13338e-14 -6.09556e-15 -2.56266e-30
rhumerus 27.2877 13.4213 -73.607
rradius 130.533 -0 0
rwrist -47.5771 0 0
rhand -26.5366 -22.2689 0.0177256
rfingers 7.12502 -0 0
rthumb 0.0274364 -52.2452 0.017056
